<svg id="Capa_1" data-name="Capa 1" xmlns="http://www.w3.org/2000/svg" viewBox="0 0 210.86 189.36"><defs><style>.cls-1,.cls-3{fill:#fff;}.cls-1{stroke:#020202;}.cls-1,.cls-2{stroke-miterlimit:10;stroke-width:2px;}.cls-2{fill:#d1f1f2;stroke:#000;}.cls-3{opacity:0.51;}</style></defs><title>Vv3</title><polygon class="cls-1" points="102.92 188.36 209.86 188.36 209.86 1 37.46 1 37.46 62.23 1.63 62.23 56.08 170.02 93.33 170.02 102.92 188.36"/><polygon class="cls-2" points="140.45 182.71 204.5 182.71 204.5 6.92 101.79 6.92 42.82 6.92 42.82 32.32 42.82 62.23 76.68 142.36 80.35 134.75 59.47 87.62 94.46 87.62 98.69 97.22 109.41 76.62 153.43 76.62 144.97 92.98 136.5 92.98 112.8 141.24 118.72 157.6 148.63 105.68 191.52 105.68 183.34 121.77 175.72 121.77 140.45 182.71"/><path class="cls-3" d="M88.38,63.1v24s97.91,3.73,145.11,72.77c1,0,1.91,0,2.89,0-.19,0,1.31,0,1.32,0-.64,1.18-1.19,2.44-1.83,3.62a134.74,134.74,0,0,1,12,23.88l.23-124.19Z" transform="translate(-44.54 -55.19)"/></svg>